<svg width="16" height="16" viewBox="0 0 16 16" fill="none" xmlns="http://www.w3.org/2000/svg">
<path fill-rule="evenodd" clip-rule="evenodd" d="M6.51197 1.5H9.48811C10.03 1.5 10.4671 1.49999 10.821 1.52891C11.1854 1.55868 11.5055 1.62159 11.8017 1.77248C12.2721 2.01217 12.6545 2.39462 12.8942 2.86502C13.0451 3.16117 13.108 3.48126 13.1378 3.84569C13.1667 4.19963 13.1667 4.6367 13.1667 5.17858V14C13.1667 14.1782 13.0718 14.343 12.9177 14.4325C12.7635 14.5219 12.5734 14.5226 12.4186 14.4341L8.00004 11.9092L3.58144 14.4341C3.42669 14.5226 3.23657 14.5219 3.08241 14.4325C2.92825 14.343 2.83337 14.1782 2.83337 14L2.83337 5.1786C2.83337 4.6367 2.83337 4.19963 2.86228 3.84569C2.89206 3.48126 2.95496 3.16117 3.10586 2.86502C3.34554 2.39462 3.72799 2.01217 4.1984 1.77248C4.49454 1.62159 4.81464 1.55868 5.17906 1.52891C5.533 1.49999 5.97008 1.5 6.51197 1.5ZM5.26049 2.52559C4.95791 2.55031 4.78407 2.5964 4.65239 2.66349C4.37015 2.8073 4.14067 3.03677 3.99686 3.31901C3.92977 3.45069 3.88368 3.62454 3.85896 3.92712C3.83376 4.23554 3.83337 4.6317 3.83337 5.2V13.1384L7.75197 10.8992C7.90569 10.8114 8.09439 10.8114 8.24811 10.8992L12.1667 13.1384V5.2C12.1667 4.6317 12.1663 4.23554 12.1411 3.92712C12.1164 3.62454 12.0703 3.45069 12.0032 3.31901C11.8594 3.03677 11.6299 2.8073 11.3477 2.66349C11.216 2.5964 11.0422 2.55031 10.7396 2.52559C10.4312 2.50039 10.035 2.5 9.46671 2.5H6.53337C5.96507 2.5 5.56892 2.50039 5.26049 2.52559Z" fill="#0A0A0A"/>
</svg>
