<svg width="20" height="20" viewBox="0 0 20 20" fill="none" xmlns="http://www.w3.org/2000/svg">
<path fill-rule="evenodd" clip-rule="evenodd" d="M8.1399 1.875H11.8601C12.5374 1.87499 13.0838 1.87499 13.5262 1.91114C13.9817 1.94835 14.3819 2.02699 14.752 2.2156C15.3401 2.51521 15.8181 2.99327 16.1177 3.58128C16.3063 3.95146 16.385 4.35158 16.4222 4.80711C16.4583 5.24953 16.4583 5.79587 16.4583 6.47323V17.5C16.4583 17.7228 16.3397 17.9287 16.147 18.0406C15.9543 18.1524 15.7167 18.1532 15.5232 18.0427L9.99999 14.8865L4.47674 18.0427C4.2833 18.1532 4.04565 18.1524 3.85295 18.0406C3.66026 17.9287 3.54166 17.7228 3.54166 17.5L3.54166 6.47325C3.54165 5.79588 3.54165 5.24953 3.57779 4.80711C3.61501 4.35158 3.69364 3.95146 3.88226 3.58128C4.18187 2.99327 4.65993 2.51521 5.24794 2.2156C5.61812 2.02699 6.01824 1.94835 6.47377 1.91114C6.91619 1.87499 7.46254 1.87499 8.1399 1.875Z" fill="#FF6A32"/>
</svg>
