<svg width="64" height="64" viewBox="0 0 64 64" fill="none" xmlns="http://www.w3.org/2000/svg">
<g clip-path="url(#clip0_214_3288)">
<path fill-rule="evenodd" clip-rule="evenodd" d="M57.8224 23.3026H52.8224L51.8448 21.1858C50.6608 18.6226 48.096 16.981 45.272 16.981H18.7264C15.9024 16.981 13.3376 18.6226 12.1536 21.1858L11.176 23.3026H6.17603V53.4626H6.20163C6.29443 56.1266 8.46083 58.4002 11.2976 58.4002H52.7008C55.536 58.4002 57.704 56.1266 57.7968 53.4626H57.8224V23.3026Z" fill="#FFA300"/>
<path fill-rule="evenodd" clip-rule="evenodd" d="M52.7008 28.7905H11.2992C7.95524 28.7905 5.50884 25.6353 6.34244 22.3969L12.1552 9.8049C13.3392 7.2417 15.904 5.6001 18.728 5.6001H45.2752C48.0992 5.6001 50.664 7.2417 51.848 9.8049L57.6608 22.3969C58.4944 25.6353 56.048 28.7905 52.704 28.7905H52.7008Z" fill="#FFC33A"/>
<path fill-rule="evenodd" clip-rule="evenodd" d="M36.5568 28.7905H27.4432L28.0592 5.6001H35.9408L36.5568 28.7905Z" fill="#FFE3A0"/>
<path d="M36.6128 28.7905H27.4432V44.0369H36.6128V28.7905Z" fill="#FFD06C"/>
</g>
<defs>
<clipPath id="clip0_214_3288">
<rect width="64" height="64" fill="white"/>
</clipPath>
</defs>
</svg>
