<svg width="32" height="32" viewBox="0 0 32 32" fill="none" xmlns="http://www.w3.org/2000/svg">
<path d="M16.0001 22.0391C16.9097 22.0391 17.6475 22.7769 17.6475 23.6865C17.6474 24.596 16.9096 25.333 16.0001 25.333C15.0905 25.333 14.3527 24.5961 14.3526 23.6865C14.3526 22.7769 15.0904 22.0391 16.0001 22.0391ZM16.0001 14.3525C16.9097 14.3526 17.6475 15.0904 17.6475 16C17.6475 16.9096 16.9097 17.6474 16.0001 17.6475C15.0904 17.6475 14.3526 16.9096 14.3526 16C14.3526 15.0904 15.0904 14.3525 16.0001 14.3525ZM16.0001 6.66699C16.9096 6.66702 17.6474 7.40396 17.6475 8.31348C17.6475 9.2231 16.9097 9.96091 16.0001 9.96094C15.0904 9.96094 14.3526 9.22312 14.3526 8.31348C14.3527 7.40395 15.0905 6.66699 16.0001 6.66699Z" fill="#0A0A0A"/>
</svg>
