<svg width="87" height="14" viewBox="0 0 87 14" fill="none" xmlns="http://www.w3.org/2000/svg">
<path d="M6.2993 2.26984C5.14878 2.26984 4.2795 2.52648 3.69145 3.03976C2.69343 3.91089 2.80939 5.26402 2.80939 6.46592H8.65787V8.58321H2.80939V13.7417H0.31659C0.31659 10.323 -1.04206 4.0788 1.86979 1.48066C3.91281 -0.345015 7.77057 -0.426783 10.0768 1.05721L9.29066 3.0975C8.49808 2.54572 7.50096 2.26984 6.2993 2.26984Z" fill="#FF4500"/>
<path d="M21.3343 3.46322V13.7417H19.0524V12.4136C16.9982 14.9412 12.6241 14.0256 11.133 11.3742C9.79318 8.92173 10.4663 5.4051 12.9738 4.00216C14.8323 2.97914 17.4512 3.08268 18.9374 4.71434V3.46322H21.3343ZM15.9268 11.8169C18.6925 11.8169 20.0136 8.22378 18.1128 6.27344C16.9586 5.08905 14.8951 5.08905 13.7408 6.27344C11.8765 8.2299 13.1611 11.8169 15.9268 11.8169Z" fill="#FF4500"/>
<path d="M34.058 3.46322L29.6669 13.7417H27.1933L22.8021 3.46322H25.2949L28.478 11.0855L31.757 3.46322H34.058Z" fill="#FF4500"/>
<path d="M39.8773 13.8764C37.973 13.8764 36.1163 13.0084 35.1218 11.3357C33.6907 8.82174 34.5093 5.40966 37.0777 4.02141C39.5827 2.66744 43.1577 3.33836 44.6328 5.88847C46.819 9.56578 43.9318 13.8764 39.8773 13.8764ZM39.8773 11.8169C42.643 11.8169 43.964 8.22378 42.0633 6.27344C40.909 5.08905 38.8456 5.08905 37.6913 6.27344C35.827 8.22991 37.1116 11.8169 39.8773 11.8169Z" fill="#FF4500"/>
<path d="M49.9162 4.96457C50.6065 3.88667 51.821 3.34773 53.5595 3.34773V5.63825C52.598 5.45728 51.508 5.68123 50.8174 6.40817C49.2484 8.02161 50.0313 11.7335 50.0313 13.7417H47.6343V3.46322H49.9162V4.96457Z" fill="#FF4500"/>
<path d="M66.3863 12.4521C63.6214 14.637 54.977 15.0661 54.977 10.0076C54.977 8.55073 55.8945 7.35099 57.2397 6.85088C55.5151 5.92198 55.0305 3.59998 56.185 2.01961C58.1973 -0.71319 63.1804 -0.301455 65.8686 1.07645L65.1591 3.05901C63.471 2.17322 55.0663 2.72687 58.6778 5.44577C60.002 6.40114 62.5149 5.88847 64.0278 5.88847V7.96727H60.3461C54.5068 7.96727 60.5565 14.37 65.581 10.5273L66.3863 12.4521Z" fill="#FF4500"/>
<path d="M78.1113 3.46322V13.7417H75.8295V12.4136C73.7752 14.9412 69.4012 14.0256 67.91 11.3742C66.5702 8.92173 67.2433 5.4051 69.7509 4.00216C71.6093 2.97914 74.2282 3.08268 75.7144 4.71434V3.46322H78.1113ZM72.7039 11.8169C75.4696 11.8169 76.7906 8.22378 74.8899 6.27344C73.7356 5.08905 71.6721 5.08905 70.5179 6.27344C68.6535 8.22991 69.9381 11.8169 72.7039 11.8169Z" fill="#FF4500"/>
<path d="M87 13.1835C85.7088 14.244 83.2596 14.1151 82.0911 12.991C79.7246 10.7145 81.1707 4.08674 81.1707 1.19194H83.5676V3.54021H86.3097V5.46502H83.5676C83.5676 6.94889 82.8347 10.2915 83.9319 11.5089C84.5414 12.1207 85.7003 11.9662 86.3289 11.4704L87 13.1835Z" fill="#FF4500"/>
</svg>
