<svg width="32" height="32" viewBox="0 0 32 32" fill="none" xmlns="http://www.w3.org/2000/svg">
<path d="M26.6667 10.6667H5.33333C4.59695 10.6667 4 11.2637 4 12.0001V14.6667C4 15.4031 4.59695 16.0001 5.33333 16.0001H26.6667C27.403 16.0001 28 15.4031 28 14.6667V12.0001C28 11.2637 27.403 10.6667 26.6667 10.6667Z" stroke="#FF4500" stroke-width="2.66667" stroke-linecap="round" stroke-linejoin="round"/>
<path d="M16 10.6667V28.0001" stroke="#FF4500" stroke-width="2.66667" stroke-linecap="round" stroke-linejoin="round"/>
<path d="M25.3334 16V25.3333C25.3334 26.0406 25.0525 26.7189 24.5524 27.219C24.0523 27.719 23.374 28 22.6667 28H9.33341C8.62617 28 7.94789 27.719 7.4478 27.219C6.9477 26.7189 6.66675 26.0406 6.66675 25.3333V16" stroke="#FF4500" stroke-width="2.66667" stroke-linecap="round" stroke-linejoin="round"/>
<path d="M10.0001 10.6665C9.11603 10.6665 8.26818 10.3153 7.64306 9.69021C7.01794 9.06509 6.66675 8.21724 6.66675 7.33318C6.66675 6.44913 7.01794 5.60128 7.64306 4.97616C8.26818 4.35104 9.11603 3.99985 10.0001 3.99985C11.2863 3.97744 12.5468 4.60153 13.6171 5.79073C14.6873 6.97993 15.5178 8.67906 16.0001 10.6665C16.4824 8.67906 17.3128 6.97993 18.3831 5.79073C19.4534 4.60153 20.7138 3.97744 22.0001 3.99985C22.8841 3.99985 23.732 4.35104 24.3571 4.97616C24.9822 5.60128 25.3334 6.44913 25.3334 7.33318C25.3334 8.21724 24.9822 9.06509 24.3571 9.69021C23.732 10.3153 22.8841 10.6665 22.0001 10.6665" stroke="#FF4500" stroke-width="2.66667" stroke-linecap="round" stroke-linejoin="round"/>
</svg>
