<svg width="16" height="16" viewBox="0 0 16 16" fill="none" xmlns="http://www.w3.org/2000/svg">
<path fill-rule="evenodd" clip-rule="evenodd" d="M3.04919 1.5C3.055 1.5 3.06083 1.5 3.06667 1.5L5.61748 1.5C5.78914 1.49999 5.94679 1.49998 6.07858 1.51074C6.22067 1.52235 6.37612 1.54893 6.52966 1.62716C6.74918 1.73901 6.92766 1.91749 7.03951 2.13701C7.11774 2.29055 7.14432 2.446 7.15593 2.58809C7.16669 2.71988 7.16668 2.87753 7.16667 3.04919V5.61748C7.16668 5.78914 7.16669 5.94679 7.15593 6.07858C7.14432 6.22067 7.11774 6.37612 7.03951 6.52966C6.92766 6.74918 6.74918 6.92766 6.52966 7.03951C6.37612 7.11774 6.22067 7.14432 6.07858 7.15593C5.94679 7.16669 5.78914 7.16668 5.61748 7.16667H3.04919C2.87753 7.16668 2.71988 7.16669 2.58809 7.15593C2.446 7.14432 2.29055 7.11774 2.13701 7.03951C1.91749 6.92766 1.73901 6.74918 1.62716 6.52966C1.54893 6.37612 1.52235 6.22067 1.51074 6.07858C1.49998 5.94679 1.49999 5.78914 1.5 5.61748L1.5 3.06667C1.5 3.06083 1.5 3.055 1.5 3.04919C1.49999 2.87753 1.49998 2.71988 1.51074 2.58809C1.52235 2.446 1.54893 2.29055 1.62716 2.13701C1.73901 1.91749 1.91749 1.73901 2.13701 1.62716C2.29055 1.54893 2.446 1.52235 2.58809 1.51074C2.71988 1.49998 2.87753 1.49999 3.04919 1.5ZM2.58725 2.51982C2.58723 2.51981 2.58755 2.51968 2.58826 2.51945L2.58725 2.51982ZM2.58898 2.51922C2.5949 2.51738 2.61698 2.51172 2.66952 2.50742C2.7556 2.50039 2.87173 2.5 3.06667 2.5H5.6C5.79494 2.5 5.91107 2.50039 5.99715 2.50742C6.04969 2.51172 6.07177 2.51738 6.07769 2.51922C6.10745 2.5349 6.13177 2.55922 6.14745 2.58898C6.14929 2.5949 6.15495 2.61698 6.15925 2.66952C6.16628 2.7556 6.16667 2.87173 6.16667 3.06667V5.6C6.16667 5.79494 6.16628 5.91107 6.15925 5.99715C6.15495 6.04969 6.14929 6.07177 6.14745 6.07769C6.13177 6.10745 6.10745 6.13177 6.07769 6.14745C6.07177 6.14929 6.04969 6.15495 5.99715 6.15925C5.91107 6.16628 5.79494 6.16667 5.6 6.16667H3.06667C2.87173 6.16667 2.7556 6.16628 2.66952 6.15925C2.61698 6.15495 2.59489 6.14929 2.58898 6.14745C2.55922 6.13177 2.5349 6.10745 2.51922 6.07769C2.51738 6.07177 2.51172 6.04969 2.50742 5.99715C2.50039 5.91107 2.5 5.79494 2.5 5.6V3.06667C2.5 2.87173 2.50039 2.7556 2.50742 2.66952C2.51172 2.61698 2.51738 2.5949 2.51922 2.58898C2.5349 2.55922 2.55922 2.5349 2.58898 2.51922ZM2.51982 2.58725C2.51983 2.58727 2.51971 2.58763 2.51945 2.58826L2.51982 2.58725ZM2.51982 6.07942C2.51981 6.07944 2.51968 6.07913 2.51945 6.07843L2.51982 6.07942ZM2.58725 6.14685C2.58727 6.14684 2.58763 6.14696 2.58826 6.14722L2.58725 6.14685ZM6.07942 6.14685C6.07944 6.14686 6.07913 6.14699 6.07841 6.14722L6.07942 6.14685ZM6.14685 6.07942C6.14684 6.0794 6.14696 6.07904 6.14722 6.07841L6.14685 6.07942ZM6.14685 2.58725C6.14686 2.58723 6.14699 2.58754 6.14722 2.58824L6.14685 2.58725ZM6.07843 2.51945C6.07913 2.51968 6.07944 2.51981 6.07942 2.51982L6.07843 2.51945ZM10.3825 1.5H12.9508C13.1225 1.49999 13.2801 1.49998 13.4119 1.51074C13.554 1.52235 13.7095 1.54893 13.863 1.62716C14.0825 1.73901 14.261 1.91749 14.3728 2.13701C14.4511 2.29055 14.4776 2.446 14.4893 2.58809C14.5 2.71988 14.5 2.87753 14.5 3.04918V5.61749C14.5 5.78914 14.5 5.94679 14.4893 6.07858C14.4776 6.22067 14.4511 6.37612 14.3728 6.52966C14.261 6.74918 14.0825 6.92766 13.863 7.03951C13.7095 7.11774 13.554 7.14432 13.4119 7.15593C13.2801 7.16669 13.1225 7.16668 12.9508 7.16667H10.3825C10.2109 7.16668 10.0532 7.16669 9.92142 7.15593C9.77933 7.14432 9.62388 7.11774 9.47035 7.03951C9.25082 6.92766 9.07235 6.74918 8.96049 6.52966C8.88226 6.37612 8.85569 6.22067 8.84408 6.07858C8.83331 5.94679 8.83332 5.78914 8.83333 5.61749V3.04918C8.83332 2.87753 8.83331 2.71988 8.84408 2.58809C8.85569 2.446 8.88226 2.29055 8.96049 2.13701C9.07235 1.91749 9.25082 1.73901 9.47035 1.62716C9.62388 1.54893 9.77933 1.52235 9.92142 1.51074C10.0532 1.49998 10.2109 1.49999 10.3825 1.5ZM9.92059 2.51982C9.92057 2.51981 9.92088 2.51968 9.92158 2.51945L9.92059 2.51982ZM9.92231 2.51922C9.92823 2.51738 9.95031 2.51172 10.0029 2.50742C10.0889 2.50039 10.2051 2.5 10.4 2.5H12.9333C13.1283 2.5 13.2444 2.50039 13.3305 2.50742C13.383 2.51172 13.4051 2.51738 13.411 2.51922C13.4408 2.5349 13.4651 2.55922 13.4808 2.58897C13.4826 2.59489 13.4883 2.61697 13.4926 2.66952C13.4996 2.7556 13.5 2.87173 13.5 3.06667V5.6C13.5 5.79494 13.4996 5.91107 13.4926 5.99715C13.4883 6.0497 13.4826 6.07178 13.4808 6.07769C13.4651 6.10745 13.4408 6.13177 13.411 6.14745C13.4051 6.14929 13.383 6.15495 13.3305 6.15925C13.2444 6.16628 13.1283 6.16667 12.9333 6.16667H10.4C10.2051 6.16667 10.0889 6.16628 10.0029 6.15925C9.95032 6.15495 9.92823 6.14929 9.92231 6.14745C9.89255 6.13177 9.86823 6.10745 9.85255 6.07769C9.85072 6.07178 9.84505 6.04969 9.84076 5.99715C9.83372 5.91107 9.83334 5.79494 9.83334 5.6V3.06667C9.83334 2.87173 9.83372 2.7556 9.84076 2.66952C9.84505 2.61699 9.85071 2.5949 9.85255 2.58898C9.86823 2.55922 9.89255 2.5349 9.92231 2.51922ZM9.85315 2.58725C9.85316 2.58727 9.85304 2.58762 9.85278 2.58825L9.85315 2.58725ZM9.85315 6.07942C9.85315 6.07944 9.85302 6.07912 9.85279 6.07843L9.85315 6.07942ZM9.92058 6.14685C9.92059 6.14684 9.92095 6.14696 9.92159 6.14722L9.92058 6.14685ZM13.4128 6.14685C13.4128 6.14686 13.4125 6.14698 13.4118 6.14722L13.4128 6.14685ZM13.4802 6.07942C13.4802 6.07938 13.4803 6.07902 13.4806 6.07841L13.4802 6.07942ZM13.4802 2.58725C13.4802 2.58723 13.4803 2.58755 13.4805 2.58824L13.4802 2.58725ZM13.4118 2.51945C13.4125 2.51968 13.4128 2.51981 13.4128 2.51982L13.4118 2.51945ZM3.04918 8.83333H5.61749C5.78914 8.83332 5.94679 8.83331 6.07858 8.84408C6.22067 8.85569 6.37612 8.88226 6.52966 8.96049C6.74918 9.07235 6.92766 9.25082 7.03951 9.47035C7.11774 9.62388 7.14432 9.77933 7.15593 9.92142C7.16669 10.0532 7.16668 10.2109 7.16667 10.3825V12.9508C7.16668 13.1225 7.16669 13.2801 7.15593 13.4119C7.14432 13.554 7.11774 13.7095 7.03951 13.863C6.92766 14.0825 6.74918 14.261 6.52966 14.3728C6.37612 14.4511 6.22067 14.4776 6.07858 14.4893C5.94679 14.5 5.78914 14.5 5.61749 14.5H3.04918C2.87753 14.5 2.71988 14.5 2.58809 14.4893C2.446 14.4776 2.29055 14.4511 2.13701 14.3728C1.91749 14.261 1.73901 14.0825 1.62716 13.863C1.54893 13.7095 1.52235 13.554 1.51074 13.4119C1.49998 13.2801 1.49999 13.1225 1.5 12.9508V10.3825C1.49999 10.2109 1.49998 10.0532 1.51074 9.92142C1.52235 9.77933 1.54893 9.62388 1.62716 9.47035C1.73901 9.25082 1.91749 9.07235 2.13701 8.96049C2.29055 8.88226 2.446 8.85569 2.58809 8.84408C2.71988 8.83331 2.87753 8.83332 3.04918 8.83333ZM2.58725 9.85315C2.58723 9.85315 2.58755 9.85302 2.58826 9.85278L2.58725 9.85315ZM2.58897 9.85255C2.59489 9.85072 2.61697 9.84505 2.66952 9.84076C2.7556 9.83372 2.87173 9.83334 3.06667 9.83334H5.6C5.79494 9.83334 5.91107 9.83372 5.99715 9.84076C6.04969 9.84505 6.07178 9.85071 6.07769 9.85255C6.10745 9.86823 6.13177 9.89255 6.14745 9.92231C6.14929 9.92823 6.15495 9.95032 6.15925 10.0029C6.16628 10.0889 6.16667 10.2051 6.16667 10.4V12.9333C6.16667 13.1283 6.16628 13.2444 6.15925 13.3305C6.15495 13.383 6.14929 13.4051 6.14745 13.411C6.13177 13.4408 6.10745 13.4651 6.0777 13.4808C6.07178 13.4826 6.0497 13.4883 5.99715 13.4926C5.91107 13.4996 5.79494 13.5 5.6 13.5H3.06667C2.87173 13.5 2.7556 13.4996 2.66952 13.4926C2.61698 13.4883 2.5949 13.4826 2.58898 13.4808C2.55922 13.4651 2.5349 13.4408 2.51922 13.411C2.51738 13.4051 2.51172 13.383 2.50742 13.3305C2.50039 13.2444 2.5 13.1283 2.5 12.9333V10.4C2.5 10.2051 2.50039 10.0889 2.50742 10.0029C2.51172 9.95031 2.51738 9.92823 2.51922 9.92231C2.5349 9.89255 2.55922 9.86823 2.58897 9.85255ZM2.51982 9.92059C2.51983 9.9206 2.51971 9.92095 2.51945 9.92158L2.51982 9.92059ZM2.51982 13.4128C2.51981 13.4128 2.51968 13.4125 2.51945 13.4118L2.51982 13.4128ZM2.58725 13.4802C2.58727 13.4802 2.58762 13.4803 2.58824 13.4806L2.58725 13.4802ZM6.07942 13.4802C6.07944 13.4802 6.07913 13.4803 6.07843 13.4805L6.07942 13.4802ZM6.14685 13.4128C6.14684 13.4127 6.14696 13.4124 6.14721 13.4118L6.14685 13.4128ZM6.14685 9.92059C6.14686 9.92056 6.14699 9.92088 6.14722 9.92159L6.14685 9.92059ZM6.07842 9.85279C6.07912 9.85302 6.07944 9.85315 6.07942 9.85315L6.07842 9.85279ZM10.3825 8.83333H12.9508C13.1225 8.83332 13.2801 8.83331 13.4119 8.84408C13.554 8.85569 13.7095 8.88226 13.863 8.96049C14.0825 9.07235 14.261 9.25082 14.3728 9.47035C14.4511 9.62388 14.4776 9.77933 14.4893 9.92142C14.5 10.0532 14.5 10.2109 14.5 10.3825V12.9508C14.5 13.1225 14.5 13.2801 14.4893 13.4119C14.4776 13.554 14.4511 13.7095 14.3728 13.863C14.261 14.0825 14.0825 14.261 13.863 14.3728C13.7095 14.4511 13.554 14.4776 13.4119 14.4893C13.2801 14.5 13.1225 14.5 12.9508 14.5H10.3825C10.2109 14.5 10.0532 14.5 9.92142 14.4893C9.77933 14.4776 9.62388 14.4511 9.47035 14.3728C9.25082 14.261 9.07235 14.0825 8.96049 13.863C8.88226 13.7095 8.85569 13.554 8.84408 13.4119C8.83331 13.2801 8.83332 13.1225 8.83333 12.9508V10.3825C8.83332 10.2109 8.83331 10.0532 8.84408 9.92142C8.85569 9.77933 8.88226 9.62388 8.96049 9.47035C9.07235 9.25082 9.25082 9.07235 9.47035 8.96049C9.62388 8.88226 9.77933 8.85569 9.92142 8.84408C10.0532 8.83331 10.2109 8.83332 10.3825 8.83333ZM9.92059 9.85315C9.92055 9.85316 9.92086 9.85302 9.9216 9.85278L9.92059 9.85315ZM9.92231 9.85255C9.92823 9.85071 9.95031 9.84505 10.0029 9.84076C10.0889 9.83372 10.2051 9.83334 10.4 9.83334H12.9333C13.1283 9.83334 13.2444 9.83372 13.3305 9.84076C13.383 9.84505 13.4051 9.85072 13.411 9.85255C13.4408 9.86823 13.4651 9.89255 13.4808 9.92231C13.4826 9.92823 13.4883 9.95031 13.4926 10.0029C13.4996 10.0889 13.5 10.2051 13.5 10.4V12.9333C13.5 13.1283 13.4996 13.2444 13.4926 13.3305C13.4883 13.383 13.4826 13.4051 13.4808 13.411C13.4651 13.4408 13.4408 13.4651 13.411 13.4808C13.4051 13.4826 13.383 13.4883 13.3305 13.4926C13.2444 13.4996 13.1283 13.5 12.9333 13.5H10.4C10.2051 13.5 10.0889 13.4996 10.0029 13.4926C9.95031 13.4883 9.92823 13.4826 9.92231 13.4808C9.89255 13.4651 9.86823 13.4408 9.85255 13.411C9.85072 13.4051 9.84505 13.383 9.84076 13.3305C9.83372 13.2444 9.83334 13.1283 9.83334 12.9333V10.4C9.83334 10.2051 9.83372 10.0889 9.84076 10.0029C9.84505 9.95031 9.85072 9.92823 9.85255 9.92231C9.86823 9.89255 9.89255 9.86823 9.92231 9.85255ZM9.85315 9.92059C9.85315 9.92062 9.85304 9.92098 9.85278 9.92159L9.85315 9.92059ZM9.85315 13.4128C9.85315 13.4128 9.85302 13.4125 9.85278 13.4117L9.85315 13.4128ZM9.92059 13.4802C9.92062 13.4802 9.92097 13.4803 9.9216 13.4806L9.92059 13.4802ZM13.4128 13.4802C13.4128 13.4802 13.4125 13.4803 13.4118 13.4805L13.4128 13.4802ZM13.4802 9.92058C13.4802 9.92057 13.4803 9.92088 13.4806 9.92158L13.4802 9.92058Z" fill="#0A0A0A"/>
</svg>
