<svg width="600" height="600" viewBox="0 0 600 600" fill="none" xmlns="http://www.w3.org/2000/svg">
<rect width="600" height="600" fill="#FF4500"/>
<g clip-path="url(#clip0_188_1477)">
<path d="M405.77 94.6783C391.904 90.5854 377.15 90.586 363.283 94.68L236.347 132.158C222.48 136.252 207.726 136.252 193.86 132.159L141.903 116.824C93.8312 102.635 45.63 138.665 45.63 188.787V406.234C45.63 439.492 67.5239 468.782 99.4218 478.197L193.86 506.071C207.726 510.164 222.48 510.163 236.347 506.069L363.283 468.592C377.15 464.498 391.904 464.497 405.77 468.59L457.727 483.926C505.799 498.114 554 462.085 554 411.962V194.516C554 161.257 532.106 131.967 500.208 122.552L405.77 94.6783Z" fill="#FF4500"/>
</g>
<path d="M300.74 258.017V290.196C300.74 313.625 291.784 336.094 275.841 352.66C259.898 369.227 238.275 378.534 215.728 378.534V378.534C204.56 378.54 193.5 376.26 183.18 371.824C172.861 367.388 163.483 360.882 155.584 352.678C147.684 344.475 141.418 334.734 137.143 324.013C132.867 313.293 130.667 301.801 130.667 290.196V218.464" stroke="white" stroke-width="40.0173" stroke-linecap="round" stroke-linejoin="round"/>
<path d="M300.74 289.673V257.304C300.754 233.731 309.724 211.13 325.679 194.466C341.635 177.803 363.269 168.443 385.827 168.443V168.443C408.371 168.457 429.988 177.825 445.925 194.488C461.862 211.151 470.814 233.745 470.814 257.304V289.673C470.814 301.347 468.613 312.906 464.336 323.691C460.06 334.475 453.791 344.273 445.89 352.525C437.988 360.778 428.608 367.322 418.285 371.784C407.962 376.247 396.899 378.541 385.728 378.534V378.534" stroke="white" stroke-width="40.0173" stroke-linecap="round" stroke-linejoin="round"/>
<path d="M186.591 221.715V261.733" stroke="white" stroke-width="40.0173" stroke-linecap="round" stroke-linejoin="round"/>
<path d="M246.617 221.715V261.733" stroke="white" stroke-width="40.0173" stroke-linecap="round" stroke-linejoin="round"/>
<path d="M215.704 378.534V418.551" stroke="white" stroke-width="40.0173" stroke-linecap="round" stroke-linejoin="round"/>
<path d="M385.527 378.534V418.551" stroke="white" stroke-width="40.0173" stroke-linecap="round" stroke-linejoin="round"/>
<defs>
<clipPath id="clip0_188_1477">
<rect width="508.37" height="423.934" fill="white" transform="translate(45.63 88.408)"/>
</clipPath>
</defs>
</svg>
