<svg width="12" height="12" viewBox="0 0 12 12" fill="none" xmlns="http://www.w3.org/2000/svg">
<rect width="12" height="12" rx="6" fill="#FF6A32"/>
<path d="M7.89485 3.00289H7.89737C8.45 3.03143 8.97051 3.26951 9.35815 3.6674C9.77111 4.09137 10 4.66237 10 5.25413V5.92112L9.99748 6.03097C9.98522 6.28713 9.93005 6.53989 9.83386 6.77808C9.72392 7.05026 9.56217 7.29901 9.35731 7.50909C9.1524 7.71915 8.90818 7.88671 8.63807 8.00138C8.50004 8.05997 8.35661 8.10356 8.21031 8.13271V8.57709C8.21024 8.81057 8.01747 9 7.7796 9C7.54175 8.99997 7.34896 8.81055 7.3489 8.57709V7.75234C7.34894 7.5539 7.48834 7.38777 7.67613 7.34224V7.32943H7.78423C7.95932 7.32951 8.13358 7.29411 8.29653 7.22495C8.4594 7.15576 8.6086 7.05369 8.73523 6.92387C8.86189 6.79397 8.96346 6.63877 9.03302 6.46669C9.10259 6.29441 9.13859 6.10869 9.13859 5.92112V5.25413C9.13859 4.87491 8.99163 4.5146 8.73565 4.25179C8.48031 3.98978 8.1381 3.84603 7.78549 3.84582C7.43267 3.84594 7.0901 3.98968 6.83449 4.25179C6.57829 4.51458 6.43098 4.8748 6.4307 5.25413V5.93186C6.4307 6.52168 6.20106 7.09094 5.78759 7.5128C5.4754 7.8312 5.07718 8.04586 4.64606 8.1323V8.57709C4.646 8.81057 4.45322 9 4.21535 9C3.97751 8.99997 3.78471 8.81055 3.78465 8.57709V8.13188C3.64042 8.10308 3.49904 8.06013 3.36278 8.00262C3.09284 7.88868 2.84852 7.72219 2.64353 7.51322C2.43852 7.30416 2.27663 7.05653 2.16656 6.78552C2.07024 6.54835 2.01485 6.29652 2.00252 6.0413L2 5.93186V4.45374C2 4.22018 2.19283 4.03084 2.4307 4.03084C2.66858 4.03084 2.86141 4.22018 2.86141 4.45374V5.93186C2.86141 6.11756 2.89759 6.30118 2.96698 6.47205C3.03632 6.64277 3.13741 6.79688 3.26393 6.92594C3.39055 7.05504 3.53999 7.15694 3.70305 7.22577C3.84575 7.28598 3.997 7.32022 4.15016 7.32778L4.21577 7.32943C4.56938 7.32943 4.91245 7.18628 5.16761 6.92594C5.4232 6.66506 5.5693 6.30761 5.5693 5.93186V5.25413L5.57224 5.14345C5.59921 4.59129 5.82487 4.06403 6.21241 3.66657C6.62639 3.24214 7.19216 3.00004 7.78591 3H7.78927L7.89485 3.00289ZM3.60463 4.09774C3.84237 4.09785 4.03527 4.2872 4.03533 4.52065V5.3454C4.03527 5.57881 3.8424 5.7682 3.60463 5.76831C3.36676 5.76831 3.17398 5.57888 3.17392 5.3454V4.52065C3.17398 4.28713 3.36679 4.09774 3.60463 4.09774ZM4.86435 4.09774C5.10214 4.0978 5.295 4.28717 5.29506 4.52065V5.3454C5.295 5.57885 5.10218 5.76825 4.86435 5.76831C4.62648 5.76831 4.43371 5.57888 4.43365 5.3454V4.52065C4.43371 4.28713 4.62652 4.09774 4.86435 4.09774Z" fill="#FFECE5"/>
</svg>
