<svg width="31" height="31" viewBox="0 0 31 31" fill="none" xmlns="http://www.w3.org/2000/svg">
<path d="M19.774 8.04431H19.7799C21.063 8.11179 22.2715 8.67475 23.1715 9.6156C24.1303 10.6181 24.6617 11.9683 24.6617 13.3676V14.9447L24.6559 15.2045C24.6274 15.8102 24.4993 16.4078 24.276 16.9711C24.0207 17.6146 23.6452 18.2028 23.1696 18.6996C22.6938 19.1963 22.1268 19.5925 21.4996 19.8636C21.1792 20.0022 20.8462 20.1053 20.5065 20.1742V21.225C20.5063 21.7771 20.0588 22.225 19.5065 22.225C18.9542 22.2249 18.5066 21.777 18.5065 21.225V19.2748C18.5066 18.8055 18.8302 18.4127 19.2662 18.3051V18.2748H19.5172C19.9237 18.275 20.3283 18.1913 20.7067 18.0277C21.0848 17.8641 21.4312 17.6228 21.7252 17.3158C22.0193 17.0086 22.2551 16.6416 22.4166 16.2347C22.5782 15.8274 22.6617 15.3882 22.6617 14.9447V13.3676C22.6617 12.4709 22.3205 11.6189 21.7262 10.9974C21.1334 10.3779 20.3388 10.038 19.5201 10.0375C18.701 10.0378 17.9056 10.3776 17.3121 10.9974C16.7173 11.6188 16.3753 12.4706 16.3746 13.3676V14.9701C16.3746 16.3648 15.8414 17.7108 14.8815 18.7084C14.1566 19.4613 13.2321 19.9688 12.2311 20.1732V21.225C12.2309 21.7771 11.7834 22.225 11.2311 22.225C10.6789 22.2249 10.2312 21.777 10.2311 21.225V20.1722C9.89622 20.1041 9.56796 20.0026 9.25159 19.8666C8.62487 19.5972 8.0576 19.2035 7.58167 18.7094C7.10566 18.215 6.7298 17.6295 6.47424 16.9886C6.25061 16.4278 6.122 15.8324 6.09338 15.2289L6.08752 14.9701V11.475C6.08752 10.9227 6.53524 10.475 7.08752 10.475C7.63981 10.475 8.08752 10.9227 8.08752 11.475V14.9701C8.08752 15.4092 8.17153 15.8434 8.33264 16.2474C8.49362 16.6511 8.72835 17.0155 9.02209 17.3207C9.31606 17.626 9.66305 17.8669 10.0416 18.0297C10.3729 18.172 10.7241 18.253 11.0797 18.2709L11.2321 18.2748C12.0531 18.2748 12.8496 17.9363 13.442 17.3207C14.0354 16.7038 14.3746 15.8586 14.3746 14.9701V13.3676L14.3815 13.1058C14.4441 11.8002 14.968 10.5535 15.8678 9.61365C16.829 8.61003 18.1426 8.03758 19.5211 8.03748H19.5289L19.774 8.04431ZM9.81311 10.6332C10.3651 10.6334 10.813 11.0812 10.8131 11.6332V13.5834C10.813 14.1353 10.3652 14.5831 9.81311 14.5834C9.26083 14.5834 8.81325 14.1355 8.81311 13.5834V11.6332C8.81324 11.081 9.26091 10.6332 9.81311 10.6332ZM12.7379 10.6332C13.29 10.6333 13.7378 11.0811 13.7379 11.6332V13.5834C13.7378 14.1354 13.2901 14.5832 12.7379 14.5834C12.1856 14.5834 11.7381 14.1355 11.7379 13.5834V11.6332C11.738 11.081 12.1857 10.6332 12.7379 10.6332Z" fill="#FF4500"/>
</svg>
