<svg width="120" height="120" viewBox="0 0 120 120" fill="none" xmlns="http://www.w3.org/2000/svg">
<g clip-path="url(#clip0_3_1053)">
<path d="M80.9969 19.2535C78.2248 18.4353 75.2753 18.4354 72.5032 19.2539L47.1268 26.7461C44.3547 27.5646 41.4052 27.5647 38.6331 26.7465L28.2463 23.6807C18.636 20.8442 9 28.047 9 38.0671V81.5376C9 88.1864 13.3769 94.0419 19.7537 95.9241L38.6331 101.496C41.4052 102.315 44.3547 102.315 47.1268 101.496L72.5032 94.0039C75.2753 93.1854 78.2248 93.1853 80.9969 94.0035L91.3837 97.0693C100.994 99.9058 110.63 92.703 110.63 82.6829V39.2124C110.63 32.5636 106.253 26.7081 99.8763 24.8259L80.9969 19.2535Z" fill="#FF4500"/>
</g>
<path d="M60 51.9072V58.3402C60 63.0239 58.2095 67.5157 55.0223 70.8275C51.8351 74.1394 47.5123 76 43.005 76V76C40.7723 76.0014 38.5613 75.5456 36.4982 74.6587C34.4351 73.7718 32.5604 72.4712 30.9812 70.8312C29.4021 69.1912 28.1493 67.2439 27.2946 65.1007C26.4399 62.9574 26 60.6602 26 58.3402V44" stroke="white" stroke-width="8" stroke-linecap="round" stroke-linejoin="round"/>
<path d="M60 58.2355V51.7644C60.0026 47.0521 61.7959 42.5336 64.9856 39.2025C68.1753 35.8713 72.5003 34 77.0099 34V34C81.5169 34.0027 85.8383 35.8756 89.0243 39.2068C92.2103 42.5379 94 47.0548 94 51.7644V58.2355C94 60.5693 93.56 62.8801 92.705 65.0361C91.8501 67.1921 90.597 69.1509 89.0173 70.8006C87.4377 72.4503 85.5624 73.7586 83.4987 74.6507C81.4351 75.5429 79.2234 76.0014 76.9901 76V76" stroke="white" stroke-width="8" stroke-linecap="round" stroke-linejoin="round"/>
<path d="M37.18 44.6499V52.6499" stroke="white" stroke-width="8" stroke-linecap="round" stroke-linejoin="round"/>
<path d="M49.1801 44.6499V52.6499" stroke="white" stroke-width="8" stroke-linecap="round" stroke-linejoin="round"/>
<path d="M43 76V84" stroke="white" stroke-width="8" stroke-linecap="round" stroke-linejoin="round"/>
<path d="M76.95 76V84" stroke="white" stroke-width="8" stroke-linecap="round" stroke-linejoin="round"/>
<defs>
<clipPath id="clip0_3_1053">
<rect width="101.63" height="84.75" fill="white" transform="translate(9 18)"/>
</clipPath>
</defs>
</svg>
