<svg width="16" height="16" viewBox="0 0 16 16" fill="none" xmlns="http://www.w3.org/2000/svg">
<g clip-path="url(#clip0_17_242)">
<path fill-rule="evenodd" clip-rule="evenodd" d="M14.9026 0.892492C15.0652 0.979501 15.1666 1.14893 15.1666 1.33333V12C15.1666 12.1672 15.0831 12.3233 14.944 12.416L10.944 15.0827C10.7864 15.1877 10.583 15.1947 10.4186 15.1008L5.99998 12.5759L1.58138 15.1008C1.42663 15.1892 1.23651 15.1886 1.08235 15.0991C0.928192 15.0097 0.833313 14.8449 0.833313 14.6667V4C0.833313 3.82057 0.929456 3.6549 1.08524 3.56587L5.75191 0.899207C5.90563 0.81137 6.09433 0.81137 6.24805 0.899207L10.6464 3.41256L14.3893 0.917304C14.5427 0.815018 14.74 0.805482 14.9026 0.892492ZM10.1666 4.29016L6.49998 2.19492V11.7098L10.1666 13.8051V4.29016ZM11.1666 13.7324L14.1666 11.7324V2.26759L11.1666 4.26759V13.7324ZM5.49998 11.7098V2.19492L1.83331 4.29016V13.8051L5.49998 11.7098Z" fill="#0A0A0A"/>
</g>
<defs>
<clipPath id="clip0_17_242">
<rect width="16" height="16" fill="white"/>
</clipPath>
</defs>
</svg>
