<svg width="24" height="24" viewBox="0 0 24 24" fill="none" xmlns="http://www.w3.org/2000/svg">
<path d="M7.20996 15L2.65996 7.14C2.46376 6.80087 2.37149 6.41159 2.3946 6.02048C2.41771 5.62937 2.55518 5.25366 2.78996 4.94L4.39996 2.8C4.58625 2.55161 4.82782 2.35 5.10553 2.21115C5.38324 2.07229 5.68947 2 5.99996 2H18C18.3104 2 18.6167 2.07229 18.8944 2.21115C19.1721 2.35 19.4137 2.55161 19.6 2.8L21.2 4.94C21.4363 5.25265 21.5755 5.62784 21.6004 6.01897C21.6253 6.4101 21.5347 6.79992 21.34 7.14L16.79 15" stroke="#CD7F32" stroke-width="2" stroke-linecap="round" stroke-linejoin="round"/>
<path d="M11.0001 12L5.12012 2.20001" stroke="#CD7F32" stroke-width="2" stroke-linecap="round" stroke-linejoin="round"/>
<path d="M13 12L18.88 2.20001" stroke="#CD7F32" stroke-width="2" stroke-linecap="round" stroke-linejoin="round"/>
<path d="M8 7H16" stroke="#CD7F32" stroke-width="2" stroke-linecap="round" stroke-linejoin="round"/>
<path d="M12 22C14.7614 22 17 19.7614 17 17C17 14.2386 14.7614 12 12 12C9.23858 12 7 14.2386 7 17C7 19.7614 9.23858 22 12 22Z" stroke="#CD7F32" stroke-width="2" stroke-linecap="round" stroke-linejoin="round"/>
<path d="M12.5 15L12.6006 15.0098C12.8286 15.0563 13 15.2583 13 15.5V18.5C13 18.7761 12.7761 19 12.5 19H11.5C11.2239 19 11 18.7761 11 18.5C11 18.2239 11.2239 18 11.5 18H12V17.5H11.5C11.2239 17.5 11 17.2761 11 17C11 16.7239 11.2239 16.5 11.5 16.5H12V16H11.5C11.2239 16 11 15.7761 11 15.5C11 15.2239 11.2239 15 11.5 15H12.5Z" fill="#CD7F32"/>
</svg>
