<svg width="32" height="32" viewBox="0 0 32 32" fill="none" xmlns="http://www.w3.org/2000/svg">
<path d="M16 4H6.66667C5.95942 4 5.28115 4.28095 4.78105 4.78105C4.28095 5.28115 4 5.95942 4 6.66667V25.3333C4 26.0406 4.28095 26.7189 4.78105 27.219C5.28115 27.719 5.95942 28 6.66667 28H25.3333C26.0406 28 26.7189 27.719 27.219 27.219C27.719 26.7189 28 26.0406 28 25.3333V16" stroke="#FF4500" stroke-width="2.66667" stroke-linecap="round" stroke-linejoin="round"/>
<path d="M24.5 3.50006C25.0305 2.96962 25.7499 2.67163 26.5 2.67163C27.2502 2.67163 27.9696 2.96962 28.5 3.50006C29.0305 4.03049 29.3285 4.74991 29.3285 5.50006C29.3285 6.2502 29.0305 6.96962 28.5 7.50006L16.4827 19.5187C16.1661 19.8351 15.775 20.0666 15.3454 20.1921L11.5147 21.3121C11.4 21.3455 11.2784 21.3475 11.1626 21.3179C11.0468 21.2882 10.9411 21.228 10.8566 21.1435C10.7721 21.059 10.7119 20.9533 10.6822 20.8375C10.6526 20.7217 10.6546 20.6001 10.688 20.4854L11.808 16.6547C11.9341 16.2255 12.1661 15.8348 12.4827 15.5187L24.5 3.50006Z" stroke="#FF4500" stroke-width="2.66667" stroke-linecap="round" stroke-linejoin="round"/>
</svg>
