<svg width="16" height="16" viewBox="0 0 16 16" fill="none" xmlns="http://www.w3.org/2000/svg">
<path fill-rule="evenodd" clip-rule="evenodd" d="M7.66667 2.5C4.8132 2.5 2.5 4.8132 2.5 7.66667C2.5 10.5201 4.8132 12.8333 7.66667 12.8333C9.05944 12.8333 10.3235 12.2822 11.2527 11.3862C11.2702 11.3604 11.2903 11.3359 11.3132 11.3131C11.336 11.2903 11.3605 11.2701 11.3863 11.2526C12.2823 10.3235 12.8333 9.05941 12.8333 7.66667C12.8333 4.8132 10.5201 2.5 7.66667 2.5ZM12.3665 11.6593C13.2813 10.5835 13.8333 9.18954 13.8333 7.66667C13.8333 4.26091 11.0724 1.5 7.66667 1.5C4.26091 1.5 1.5 4.26091 1.5 7.66667C1.5 11.0724 4.26091 13.8333 7.66667 13.8333C9.18957 13.8333 10.5835 13.2813 11.6594 12.3664L13.6464 14.3535C13.8417 14.5488 14.1583 14.5488 14.3535 14.3536C14.5488 14.1583 14.5488 13.8417 14.3536 13.6465L12.3665 11.6593Z" fill="#0A0A0A"/>
</svg>
