<svg width="32" height="32" viewBox="0 0 32 32" fill="none" xmlns="http://www.w3.org/2000/svg">
<path d="M24 10.6667C26.2091 10.6667 28 8.87589 28 6.66675C28 4.45761 26.2091 2.66675 24 2.66675C21.7909 2.66675 20 4.45761 20 6.66675C20 8.87589 21.7909 10.6667 24 10.6667Z" stroke="#FF4500" stroke-width="2.66667" stroke-linecap="round" stroke-linejoin="round"/>
<path d="M8 20C10.2091 20 12 18.2091 12 16C12 13.7909 10.2091 12 8 12C5.79086 12 4 13.7909 4 16C4 18.2091 5.79086 20 8 20Z" stroke="#FF4500" stroke-width="2.66667" stroke-linecap="round" stroke-linejoin="round"/>
<path d="M24 29.3335C26.2091 29.3335 28 27.5426 28 25.3335C28 23.1244 26.2091 21.3335 24 21.3335C21.7909 21.3335 20 23.1244 20 25.3335C20 27.5426 21.7909 29.3335 24 29.3335Z" stroke="#FF4500" stroke-width="2.66667" stroke-linecap="round" stroke-linejoin="round"/>
<path d="M11.4534 18.0132L20.56 23.3198" stroke="#FF4500" stroke-width="2.66667" stroke-linecap="round" stroke-linejoin="round"/>
<path d="M20.5467 8.67993L11.4534 13.9866" stroke="#FF4500" stroke-width="2.66667" stroke-linecap="round" stroke-linejoin="round"/>
</svg>
