<svg width="12" height="12" viewBox="0 0 12 12" fill="none" xmlns="http://www.w3.org/2000/svg">
<path fill-rule="evenodd" clip-rule="evenodd" d="M5.26552 1.6487C5.38765 1.49885 5.57225 1.41395 5.7655 1.41874C5.92909 1.4228 6.05637 1.50498 6.13027 1.55758C6.20793 1.61285 6.2978 1.6899 6.39296 1.77148L10.6482 5.41886C10.7018 5.46473 10.7585 5.51334 10.8034 5.55909C10.8532 5.60984 10.9165 5.68413 10.9541 5.7887C11.0031 5.92529 11.0031 6.0747 10.9541 6.21129C10.9165 6.31586 10.8532 6.39015 10.8034 6.4409C10.7585 6.48664 10.7018 6.53523 10.6483 6.5811L6.39295 10.2285C6.29779 10.3101 6.20793 10.3871 6.13027 10.4424C6.05637 10.495 5.92909 10.5772 5.7655 10.5812C5.57225 10.586 5.38765 10.5011 5.26552 10.3513C5.16214 10.2244 5.1417 10.0743 5.13355 9.98398C5.12497 9.88904 5.12499 9.77067 5.125 9.64532L5.125 7.95181C4.59131 8.02885 4.0711 8.18671 3.58258 8.42106C2.89068 8.75298 2.27869 9.23053 1.78854 9.821C1.68761 9.94258 1.5213 9.98785 1.37268 9.9342C1.22405 9.88055 1.125 9.73949 1.125 9.58148V9.27548C1.12567 7.99583 1.59743 6.76102 2.45028 5.807C3.16161 5.01129 4.09651 4.45724 5.125 4.21201L5.125 2.35467C5.12499 2.22932 5.12497 2.11094 5.13355 2.016C5.1417 1.92567 5.16214 1.77555 5.26552 1.6487ZM5.87503 2.31539C5.87501 2.33247 5.875 2.35054 5.875 2.36968V4.51731C5.875 4.69948 5.74407 4.85531 5.56462 4.8867C4.58011 5.05894 3.67904 5.55781 3.00943 6.30685C2.42726 6.95807 2.05254 7.76204 1.92434 8.61649C2.32765 8.26959 2.7759 7.97621 3.25818 7.74485C3.95411 7.41099 4.70641 7.21323 5.47462 7.16112C5.57825 7.15409 5.68015 7.19035 5.75603 7.26127C5.83192 7.33218 5.875 7.43139 5.875 7.53526V9.63031C5.875 9.64945 5.87501 9.66752 5.87503 9.6846C5.88801 9.6735 5.90173 9.66175 5.91627 9.64929L10.1516 6.01898C10.1594 6.01229 10.1668 6.00598 10.1738 5.99999C10.1668 5.99401 10.1594 5.9877 10.1516 5.98101L5.91627 2.3507C5.90173 2.33824 5.88801 2.32649 5.87503 2.31539Z" fill="black"/>
</svg>
