<svg width="16" height="16" viewBox="0 0 16 16" fill="none" xmlns="http://www.w3.org/2000/svg">
<path d="M8.85815 0.557256L10.5891 4.22254C10.7283 4.51774 10.9979 4.72203 11.3092 4.76939L15.18 5.35739C15.9646 5.47652 16.2778 6.4841 15.7101 7.06253L12.9093 9.91543C12.684 10.1451 12.581 10.4762 12.6341 10.8005L13.2952 14.8289C13.4293 15.6456 12.6089 16.2686 11.9071 15.8829L8.44521 13.9807C8.16641 13.8276 7.83359 13.8276 7.55479 13.9807L4.09288 15.8829C3.39107 16.2686 2.57068 15.6456 2.70482 14.8289L3.36589 10.8005C3.41899 10.4762 3.31645 10.1456 3.09075 9.91543L0.28991 7.06253C-0.277766 6.4841 0.0353715 5.47652 0.820046 5.35739L4.69077 4.76939C5.00253 4.72203 5.27172 4.51774 5.41089 4.22254L7.14185 0.557256C7.49253 -0.185752 8.50702 -0.185752 8.85815 0.557256Z" fill="#FF6A32"/>
</svg>
