<svg width="26" height="26" viewBox="0 0 26 26" fill="#ffffff" xmlns="http://www.w3.org/2000/svg">
<path d="M12.1113 1.58398C12.4788 0.805642 13.5202 0.804991 13.8887 1.58398L16.5928 7.31055C16.8785 7.91654 17.4383 8.34626 18.0957 8.44629L24.1436 9.36523C24.9365 9.48562 25.3126 10.5501 24.6904 11.1846L20.3135 15.6426C19.8473 16.1179 19.639 16.7969 19.7471 17.457L20.7803 23.751C20.9307 24.6668 20.0319 25.2559 19.3457 24.8789L13.9365 21.9062C13.351 21.5847 12.649 21.5847 12.0635 21.9062L6.6543 24.8789C5.96807 25.2559 5.0693 24.6668 5.21973 23.751L6.25293 17.457C6.35423 16.8383 6.17778 16.2036 5.77051 15.7344L5.68652 15.6426L1.30957 11.1846C0.687421 10.5501 1.06352 9.48562 1.85645 9.36523L7.9043 8.44629C8.56271 8.34626 9.12162 7.91634 9.40723 7.31055L9.40625 7.30957L12.1113 1.58398Z" stroke="#525252" strokeWidth="1.5"/>
</svg>
