<svg width="16" height="16" viewBox="0 0 16 16" fill="none" xmlns="http://www.w3.org/2000/svg">
<g clip-path="url(#clip0_509_3294)">
<path d="M4.00016 5.99999H3.00016C2.55814 5.99999 2.13421 5.82439 1.82165 5.51183C1.50909 5.19927 1.3335 4.77535 1.3335 4.33332C1.3335 3.8913 1.50909 3.46737 1.82165 3.15481C2.13421 2.84225 2.55814 2.66666 3.00016 2.66666H4.00016" stroke="#FF4500" stroke-width="1.5" stroke-linecap="round" stroke-linejoin="round"/>
<path d="M12 5.99999H13C13.442 5.99999 13.866 5.82439 14.1785 5.51183C14.4911 5.19927 14.6667 4.77535 14.6667 4.33332C14.6667 3.8913 14.4911 3.46737 14.1785 3.15481C13.866 2.84225 13.442 2.66666 13 2.66666H12" stroke="#FF4500" stroke-width="1.5" stroke-linecap="round" stroke-linejoin="round"/>
<path d="M2.6665 14.6667H13.3332" stroke="#FF4500" stroke-width="1.5" stroke-linecap="round" stroke-linejoin="round"/>
<path d="M6.6665 9.77335V11.3333C6.6665 11.7 6.35317 11.9867 6.01984 12.14C5.23317 12.5 4.6665 13.4933 4.6665 14.6667" stroke="#FF4500" stroke-width="1.5" stroke-linecap="round" stroke-linejoin="round"/>
<path d="M9.3335 9.77335V11.3333C9.3335 11.7 9.64683 11.9867 9.98016 12.14C10.7668 12.5 11.3335 13.4933 11.3335 14.6667" stroke="#FF4500" stroke-width="1.5" stroke-linecap="round" stroke-linejoin="round"/>
<path d="M12 1.33334H4V6.00001C4 7.06088 4.42143 8.07829 5.17157 8.82844C5.92172 9.57858 6.93913 10 8 10C9.06087 10 10.0783 9.57858 10.8284 8.82844C11.5786 8.07829 12 7.06088 12 6.00001V1.33334Z" stroke="#FF4500" stroke-width="1.5" stroke-linecap="round" stroke-linejoin="round"/>
</g>
<defs>
<clipPath id="clip0_509_3294">
<rect width="16" height="16" fill="white"/>
</clipPath>
</defs>
</svg>
