<svg width="12" height="12" viewBox="0 0 12 12" fill="none" xmlns="http://www.w3.org/2000/svg">
<path fill-rule="evenodd" clip-rule="evenodd" d="M4.125 1.5C4.125 1.29289 4.29289 1.125 4.5 1.125H7.5C7.70711 1.125 7.875 1.29289 7.875 1.5C7.875 1.70711 7.70711 1.875 7.5 1.875H4.5C4.29289 1.875 4.125 1.70711 4.125 1.5ZM2.49709 2.625H1.5C1.29289 2.625 1.125 2.79289 1.125 3C1.125 3.20711 1.29289 3.375 1.5 3.375H2.14917L2.4775 8.3C2.50293 8.68148 2.52348 8.98982 2.56011 9.23928C2.59789 9.49662 2.65646 9.72153 2.77416 9.92813C2.96172 10.2574 3.24464 10.5221 3.58563 10.6873C3.79959 10.791 4.0279 10.8345 4.28719 10.8551C4.53853 10.875 4.84755 10.875 5.22988 10.875H6.77012C7.15245 10.875 7.46147 10.875 7.71281 10.8551C7.9721 10.8345 8.20041 10.791 8.41437 10.6873C8.75536 10.5221 9.03828 10.2574 9.22584 9.92813C9.34354 9.72153 9.40211 9.49662 9.43989 9.23928C9.47652 8.98981 9.49707 8.68148 9.5225 8.29999L9.85083 3.375H10.5C10.7071 3.375 10.875 3.20711 10.875 3C10.875 2.79289 10.7071 2.625 10.5 2.625H9.50291C9.50072 2.62498 9.49853 2.62498 9.49634 2.625H2.50366C2.50147 2.62498 2.49928 2.62498 2.49709 2.625ZM9.09917 3.375H2.90083L3.22481 8.2347C3.25151 8.63522 3.27036 8.91379 3.30215 9.13033C3.33328 9.34234 3.37309 9.4643 3.42583 9.55688C3.53837 9.75442 3.70812 9.91323 3.91271 10.0124C4.00859 10.0588 4.13292 10.0904 4.34654 10.1074C4.56471 10.1247 4.84392 10.125 5.24533 10.125H6.75467C7.15608 10.125 7.43529 10.1247 7.65346 10.1074C7.86708 10.0904 7.99141 10.0588 8.08729 10.0124C8.29188 9.91323 8.46163 9.75442 8.57417 9.55688C8.62691 9.4643 8.66672 9.34234 8.69785 9.13033C8.72964 8.91379 8.74849 8.63522 8.77519 8.2347L9.09917 3.375ZM5 4.875C5.20711 4.875 5.375 5.04289 5.375 5.25V7.75C5.375 7.95711 5.20711 8.125 5 8.125C4.79289 8.125 4.625 7.95711 4.625 7.75V5.25C4.625 5.04289 4.79289 4.875 5 4.875ZM7 4.875C7.20711 4.875 7.375 5.04289 7.375 5.25V7.75C7.375 7.95711 7.20711 8.125 7 8.125C6.79289 8.125 6.625 7.95711 6.625 7.75V5.25C6.625 5.04289 6.79289 4.875 7 4.875Z" fill="black"/>
</svg>
